<svg width="178" height="52" viewBox="0 0 178 52" fill="none" xmlns="http://www.w3.org/2000/svg">
<g clip-path="url(#clip0_1219_6983)">
<path d="M32.0146 51.3287H27.0528V15.825H5.54106V51.3287H0.5V11.2686H32.0146V51.3287Z" fill="black"/>
<path d="M43.8015 16.1885C47.1305 12.4691 51.6405 10.6055 57.3474 10.6055C63.0542 10.6055 67.5642 12.4691 70.8933 16.1885C74.2223 19.9078 75.8788 24.9538 75.8788 31.3186C75.8788 37.6834 74.2143 42.7215 70.8933 46.433C67.5642 50.1444 63.0542 52.0002 57.3474 52.0002C51.6405 52.0002 47.1305 50.1444 43.8015 46.433C40.4725 42.7215 38.8159 37.6834 38.8159 31.3186C38.8159 24.9538 40.4804 19.9078 43.8015 16.1885ZM67.1125 19.5604C64.7029 16.6623 61.4531 15.2172 57.3474 15.2172C53.2416 15.2172 49.9839 16.6623 47.5823 19.5604C45.1727 22.4585 43.9759 26.3752 43.9759 31.3186C43.9759 36.262 45.1807 40.1551 47.5823 43.0453C49.9919 45.9434 53.2416 47.3885 57.3474 47.3885C61.4531 47.3885 64.7108 45.9434 67.1125 43.0453C69.522 40.1472 70.7189 36.2383 70.7189 31.3186C70.7189 26.3989 69.5141 22.4585 67.1125 19.5604Z" fill="black"/>
<path d="M107.417 51.3287L96.0192 17.6254H95.8528L84.4549 51.3287H79.1919L93.4591 11.2686H98.4209L112.688 51.3287H107.425H107.417Z" fill="black"/>
<path d="M142.475 46.8355V51.3367H117.562V11.2686H142.475V15.7698H122.58V28.6257H141.444V33.0715H122.58V46.8434H142.475V46.8355ZM132.527 8.02308H128.239L134.366 0H139.772L132.527 8.02308Z" fill="black"/>
<path d="M164.826 51.3287H159.808V15.7697H147.126V11.2686H177.5V15.7697H164.818V51.3366L164.826 51.3287Z" fill="black"/>
</g>
<defs>
<clipPath id="clip0_1219_6983">
<rect width="177" height="52" fill="white" transform="translate(0.5)"/>
</clipPath>
</defs>
</svg>
